<?xml version="1.0" encoding="UTF-8" standalone="no"?>
<!-- Created with Inkscape (http://www.inkscape.org/) -->

<svg
   width="297mm"
   height="210mm"
   viewBox="0 0 297 210"
   version="1.1"
   id="svg5"
   inkscape:version="1.1.1 (3bf5ae0d25, 2021-09-20)"
   sodipodi:docname="Win11ClockToggler.svg"
   xmlns:inkscape="http://www.inkscape.org/namespaces/inkscape"
   xmlns:sodipodi="http://sodipodi.sourceforge.net/DTD/sodipodi-0.dtd"
   xmlns="http://www.w3.org/2000/svg"
   xmlns:svg="http://www.w3.org/2000/svg">
  <sodipodi:namedview
     id="namedview7"
     pagecolor="#ffffff"
     bordercolor="#666666"
     borderopacity="1.0"
     inkscape:pageshadow="2"
     inkscape:pageopacity="0.0"
     inkscape:pagecheckerboard="0"
     inkscape:document-units="mm"
     showgrid="false"
     inkscape:zoom="0.64052329"
     inkscape:cx="536.28027"
     inkscape:cy="322.39265"
     inkscape:window-width="1920"
     inkscape:window-height="1017"
     inkscape:window-x="1912"
     inkscape:window-y="-8"
     inkscape:window-maximized="1"
     inkscape:current-layer="layer1" />
  <defs
     id="defs2">
    <rect
       x="243.55086"
       y="224.81618"
       width="209.20395"
       height="98.357079"
       id="rect5426" />
  </defs>
  <g
     inkscape:label="Layer 1"
     inkscape:groupmode="layer"
     id="layer1">
    <g
       id="g17882"
       transform="matrix(0.35801074,0,0,0.35801074,29.924568,15.509264)"
       style="opacity:0.5"
       inkscape:export-filename="C:\Users\jmala\Downloads\Win11ClockToggler.png"
       inkscape:export-xdpi="45.799999"
       inkscape:export-ydpi="45.799999">
	<path
   class="st0"
   d="m 136.2,126.4 v 80.1 H 296.3 V 46.4 H 136.2 Z m 171.5,0 v 80.1 H 467.8 V 46.4 H 307.7 Z M 136.2,298 v 80 H 296.3 V 217.9 H 136.2 Z m 171.5,0 v 80 H 467.8 V 217.9 H 307.7 Z"
   id="path17880" />

</g>
    <g
       style="fill:#000000"
       id="g846"
       transform="matrix(4.1464086,0,0,3.3304211,88.263975,82.863966)"
       inkscape:export-filename="C:\Users\jmala\Downloads\Win11ClockToggler.png"
       inkscape:export-xdpi="45.799999"
       inkscape:export-ydpi="45.799999">
      <path
         d="M 0,0 H 24 V 24 H 0 Z"
         fill="none"
         id="path834" />
      <path
         d="M 17,6 H 7 c -3.31,0 -6,2.69 -6,6 0,3.31 2.69,6 6,6 h 10 c 3.31,0 6,-2.69 6,-6 0,-3.31 -2.69,-6 -6,-6 z m 0,10 H 7 C 4.79,16 3,14.21 3,12 3,9.79 4.79,8 7,8 h 10 c 2.21,0 4,1.79 4,4 0,2.21 -1.79,4 -4,4 z m 0,-7 c -1.66,0 -3,1.34 -3,3 0,1.66 1.34,3 3,3 1.66,0 3,-1.34 3,-3 0,-1.66 -1.34,-3 -3,-3 z"
         id="path836" />
    </g>
    <text
       xml:space="preserve"
       transform="matrix(0.60486019,0,0,0.60486019,-62.276793,-99.82426)"
       id="text5424"
       style="font-style:normal;font-weight:normal;font-size:85.7145px;line-height:1.25;font-family:sans-serif;white-space:pre;shape-inside:url(#rect5426);fill:#000000;fill-opacity:1;stroke:none"
       inkscape:export-filename="C:\Users\jmala\Downloads\Win11ClockToggler.png"
       inkscape:export-xdpi="45.799999"
       inkscape:export-ydpi="45.799999"><tspan
         x="243.55078"
         y="304.10232"
         id="tspan19246"><tspan
           style="font-family:Digital-7;-inkscape-font-specification:Digital-7"
           id="tspan19244">08:35</tspan></tspan></text>
  </g>
  <style
     type="text/css"
     id="style17878">
	.st0{fill:#0078D4;}
</style>
</svg>
